<?xml version="1.0" standalone="no"?>
<svg xmlns="http://www.w3.org/2000/svg" width="286.37252931323286" height="121.89252931323284" viewBox="0 0 286.37252931323286 121.89252931323284"><path fill="#353434" fill-rule="nonzero" d="M34.24 25.52Q34.44 26.20 34.44 27.28L34.44 27.28Q32.60 27.16 29.64 27.16L29.64 27.16Q26.80 27.16 24.76 27.28L24.76 27.28Q24.76 26.32 25.00 25.56L25.00 25.56Q26.52 25.40 27.04 24.88Q27.56 24.36 27.56 22.96L27.56 22.96Q27.56 22.16 27.44 20.96L27.44 20.96L26.00 7.24L17.72 27.24Q17.04 27.52 16.08 27.52L16.08 27.52L6.76 7.28L5.48 20.12Q5.36 21.32 5.36 22.20L5.36 22.20Q5.36 24.04 5.98 24.74Q6.60 25.44 8.08 25.56L8.08 25.56Q8.28 26.24 8.28 27.28L8.28 27.28Q6.36 27.16 4 27.16L4 27.16Q1.64 27.16 0 27.28L0 27.28Q0 26.24 0.20 25.56L0.20 25.56Q1.32 25.44 1.92 25Q2.52 24.56 2.86 23.38Q3.20 22.20 3.44 19.76L3.44 19.76L4.72 5.52Q4.76 5.16 4.76 4.56L4.76 4.56Q4.76 3 4.12 2.36Q3.48 1.72 2.04 1.72L2.04 1.72Q1.84 1.08 1.84 0L1.84 0Q3.04 0.12 4.88 0.12L4.88 0.12Q6.36 0.12 7.92 0L7.92 0L17.92 22.12L26.64 0Q28.00 0.12 29.76 0.12L29.76 0.12Q31.20 0.12 32.80 0L32.80 0Q32.80 0.96 32.60 1.72L32.60 1.72Q31.24 1.72 30.54 2.40Q29.84 3.08 29.84 4.76L29.84 4.76Q29.84 5.40 29.88 5.76L29.88 5.76L31.32 20.44Q31.52 22.44 31.84 23.50Q32.16 24.56 32.72 25Q33.28 25.44 34.24 25.52L34.24 25.52ZM41.04 5.20Q41.04 3.20 40.46 2.50Q39.88 1.80 38.28 1.72L38.28 1.72Q38.08 1.16 38.08 0L38.08 0Q40.28 0.12 42.92 0.12L42.92 0.12Q45.36 0.12 47.76 0L47.76 0Q47.76 1.16 47.56 1.72L47.56 1.72Q45.96 1.80 45.38 2.50Q44.80 3.20 44.80 5.20L44.80 5.20L44.80 22.08Q44.80 24.08 45.38 24.78Q45.96 25.48 47.56 25.56L47.56 25.56Q47.76 26.12 47.76 27.28L47.76 27.28Q45.36 27.16 42.92 27.16L42.92 27.16Q40.12 27.16 38.08 27.28L38.08 27.28Q38.08 26.12 38.28 25.56L38.28 25.56Q39.88 25.48 40.46 24.78Q41.04 24.08 41.04 22.08L41.04 22.08L41.04 5.20Z" transform="translate(0 0) scale(3.13)"></path><path fill="#353434" fill-rule="nonzero" d="M12.72 27.76Q9.04 27.76 6.14 25.98Q3.24 24.20 1.62 21Q0 17.80 0 13.68L0 13.68Q0 9.28 1.86 6.20Q3.72 3.12 6.78 1.56Q9.84 0 13.36 0L13.36 0Q15.80 0 17.88 0.50Q19.96 1 22.24 2.08L22.24 2.08Q21.80 4.16 21.80 8.28L21.80 8.28Q20.92 8.64 19.68 8.64L19.68 8.64Q19.52 4.64 18.04 3.14Q16.56 1.64 13.68 1.64L13.68 1.64Q10.44 1.64 8.32 3.16Q6.20 4.68 5.20 7.16Q4.20 9.64 4.20 12.60L4.20 12.60Q4.20 16.20 5.42 19.10Q6.64 22 8.96 23.66Q11.28 25.32 14.40 25.32L14.40 25.32Q16.28 25.32 18.28 24.68Q20.28 24.04 22.00 22.96L22.00 22.96Q22.24 23.16 22.46 23.54Q22.68 23.92 22.72 24.20L22.72 24.20Q20.28 26.08 17.98 26.92Q15.68 27.76 12.72 27.76L12.72 27.76ZM38.52 27.76Q34.64 27.76 31.64 25.94Q28.64 24.12 26.98 20.94Q25.32 17.76 25.32 13.80L25.32 13.80Q25.32 9.80 27.06 6.66Q28.80 3.52 31.82 1.76Q34.84 0 38.52 0L38.52 0Q42.32 0 45.34 1.74Q48.36 3.48 50.06 6.62Q51.76 9.76 51.76 13.80L51.76 13.80Q51.76 17.72 50.06 20.90Q48.36 24.08 45.34 25.92Q42.32 27.76 38.52 27.76L38.52 27.76ZM39.32 25.80Q41.84 25.80 43.74 24.36Q45.64 22.92 46.64 20.42Q47.64 17.92 47.64 14.84L47.64 14.84Q47.64 11.28 46.34 8.32Q45.04 5.36 42.76 3.64Q40.48 1.92 37.68 1.92L37.68 1.92Q35.32 1.92 33.44 3.28Q31.56 4.64 30.50 7.08Q29.44 9.52 29.44 12.72L29.44 12.72Q29.44 16.16 30.62 19.16Q31.80 22.16 34.04 23.98Q36.28 25.80 39.32 25.80L39.32 25.80ZM67.28 27.76Q63.60 27.76 60.70 25.98Q57.80 24.20 56.18 21Q54.56 17.80 54.56 13.68L54.56 13.68Q54.56 9.28 56.42 6.20Q58.28 3.12 61.34 1.56Q64.40 0 67.92 0L67.92 0Q70.36 0 72.44 0.50Q74.52 1 76.80 2.08L76.80 2.08Q76.36 4.16 76.36 8.28L76.36 8.28Q75.48 8.64 74.24 8.64L74.24 8.64Q74.08 4.64 72.60 3.14Q71.12 1.64 68.24 1.64L68.24 1.64Q65 1.64 62.88 3.16Q60.76 4.68 59.76 7.16Q58.76 9.64 58.76 12.60L58.76 12.60Q58.76 16.20 59.98 19.10Q61.20 22 63.52 23.66Q65.84 25.32 68.96 25.32L68.96 25.32Q70.84 25.32 72.84 24.68Q74.84 24.04 76.56 22.96L76.56 22.96Q76.80 23.16 77.02 23.54Q77.24 23.92 77.28 24.20L77.28 24.20Q74.84 26.08 72.54 26.92Q70.24 27.76 67.28 27.76L67.28 27.76ZM84.48 5.44Q84.48 3.44 83.90 2.74Q83.32 2.04 81.72 1.96L81.72 1.96Q81.52 1.40 81.52 0.24L81.52 0.24Q83.72 0.36 86.36 0.36L86.36 0.36Q88.80 0.36 91.20 0.24L91.20 0.24Q91.20 1.40 91 1.96L91 1.96Q89.40 2.04 88.82 2.74Q88.24 3.44 88.24 5.44L88.24 5.44L88.24 22.32Q88.24 24.32 88.82 25.02Q89.40 25.72 91 25.80L91 25.80Q91.20 26.36 91.20 27.52L91.20 27.52Q88.80 27.40 86.36 27.40L86.36 27.40Q83.56 27.40 81.52 27.52L81.52 27.52Q81.52 26.36 81.72 25.80L81.72 25.80Q83.32 25.72 83.90 25.02Q84.48 24.32 84.48 22.32L84.48 22.32L84.48 5.44ZM117.68 0.36Q119.84 0.36 121.48 0.24L121.48 0.24Q121.48 1.24 121.28 1.96L121.28 1.96Q120.36 1.96 119.86 2.48Q119.36 3 119.14 4.22Q118.92 5.44 118.92 7.64L118.92 7.64L118.92 27.40Q118.28 27.64 117.20 27.64L117.20 27.64L100.68 6.08L100.68 19.92Q100.68 22.24 100.92 23.48Q101.16 24.72 101.76 25.26Q102.36 25.80 103.44 25.80L103.44 25.80Q103.64 26.40 103.64 27.52L103.64 27.52Q101.84 27.40 99.68 27.40L99.68 27.40Q97.20 27.40 95.68 27.52L95.68 27.52Q95.68 26.40 95.88 25.80L95.88 25.80Q96.96 25.80 97.56 25.26Q98.16 24.72 98.40 23.48Q98.64 22.24 98.64 19.92L98.64 19.92L98.64 3.40L98.48 3.20Q97.92 2.52 97.42 2.28Q96.92 2.04 95.88 1.96L95.88 1.96Q95.68 1.24 95.68 0.24L95.68 0.24Q96.88 0.36 98.64 0.36L98.64 0.36Q100.24 0.36 101.32 0.24L101.32 0.24L116.88 20.88L116.88 7.64Q116.88 5.40 116.64 4.20Q116.40 3 115.80 2.48Q115.20 1.96 114.12 1.96L114.12 1.96Q113.92 0.80 113.92 0.24L113.92 0.24Q115.64 0.36 117.68 0.36L117.68 0.36ZM149.24 25.80Q149.48 26.60 149.48 27.52L149.48 27.52Q147.08 27.40 144.92 27.40L144.92 27.40Q142.80 27.40 140.40 27.52L140.40 27.52Q140.40 26.36 140.68 25.80L140.68 25.80Q141.80 25.68 142.26 25.44Q142.72 25.20 142.72 24.64L142.72 24.64Q142.72 24.16 142.12 22.68L142.12 22.68L140.36 18.60Q134 18.60 129.80 18.76L129.80 18.76L128.72 21.52Q128.08 23.20 128.08 24.16L128.08 24.16Q128.08 24.96 128.58 25.34Q129.08 25.72 130.16 25.80L130.16 25.80Q130.44 26.48 130.44 27.52L130.44 27.52Q129.08 27.40 126.64 27.40L126.64 27.40Q125.60 27.40 123.32 27.52L123.32 27.52Q123.32 26.52 123.60 25.84L123.60 25.84Q124.64 25.64 125.24 24.80Q125.84 23.96 126.80 21.52L126.80 21.52L135.08 0.28Q135.76 0.12 136.64 0.12L136.64 0.12L146.16 21.96Q147.16 24.20 147.74 24.92Q148.32 25.64 149.24 25.80L149.24 25.80ZM130.52 16.80L139.60 16.80L136.56 9.68Q135.36 6.92 134.80 5.32L134.80 5.32Q134.36 6.68 133.28 9.64L133.28 9.64L130.52 16.80Z" transform="translate(0 94.133) scale(1)"></path><g fill="#f1333f" color="#f1333f" transform="translate(164.481 0) scale(1.2189253)"><svg width="100.0" height="100.0" x="0.0" y="0.0" viewBox="0 0 100 100"><g><path fill="currentColor" d="M24.9,68.7L24,73.4c-0.1,0.3,0,0.6,0.2,0.8c0.2,0.2,0.5,0.4,0.8,0.4h17.7c0.6,0.3,1.3,0.5,2,0.7   c4.2,1.2,8.4,1.4,11.2,1.4c1.5,0,2.9-0.1,4.3-0.2c3-0.3,10.7-1.6,17.3-7.1c2.6-2.2,4.2-5.8,4-8.9c-0.2-2.3-1.4-4.2-3.4-5.3   c-0.9-0.5-1.8-0.8-2.8-0.8c-2.6,0-5,1.8-7.5,3.8c-2.4,1.8-4.8,3.7-7.6,4c0,0-1.9,0.4-4.5,0.4c-0.4,0-0.9,0-1.3,0   c2.3-3,3.8-7,4-12.5c0-0.3-0.1-0.5-0.3-0.7c-0.2-0.2-0.4-0.3-0.7-0.3h-7.1c1.9-2.1,6.9-8,6.4-12.3c-0.2-1.4-0.7-2.8-1.6-3.8   l3.5-4.7c0.3-0.4,0.2-1.1-0.2-1.4c-0.4-0.3-1.1-0.2-1.4,0.2l-2.1,2.9l0.8-7.2c0.1-0.5-0.3-1-0.9-1.1c-0.6-0.1-1,0.3-1.1,0.9l-1,8.6   c-0.2-0.1-0.4-0.2-0.7-0.3c-2.1-0.8-4.1-0.5-5.5,0.8c-1.7,1.5-3.5,4.3-4.8,6.3c-0.2-0.7-0.4-1.3-0.7-1.9c-0.9-1.5-2.3-2.3-4.3-2.4   c-2-0.1-3.5,0.4-4.5,1.6c-0.5,0.6-0.8,1.3-1,2.1c-0.8-0.6-1.8-1-3.2-1.2c-1.9-0.3-3.1,0.4-3.7,1c-1,0.9-1.4,2.3-1.6,3.5   c-0.4-0.2-0.8-0.4-1.2-0.4c-1.3-0.1-2.6,0.6-3.8,2.2c-1.3,1.7-1.8,3.4-1.3,4.9c0.2,0.8,0.7,1.5,1.2,2h-4.2c-0.3,0-0.5,0.1-0.7,0.3   c-0.2,0.2-0.3,0.5-0.3,0.7C12.6,59.5,16.8,65.7,24.9,68.7z M26.2,72.6l0.7-3.3c2.1,0.6,4.4,1,7,1.2c0,0,0.7,0,1.6,0   c0.4,0,1,0,1.4,0c0.2,0,0.4,0,0.6,0c0.6,0.8,1.3,1.5,2,2.2H26.2z M68.9,59.8c2.2-1.7,4.4-3.4,6.3-3.4c0.6,0,1.2,0.2,1.8,0.5   c1.8,1,2.3,2.6,2.4,3.7c0.2,2.5-1.1,5.4-3.3,7.2c-6.3,5.3-14,6.5-16.2,6.7c-1.3,0.1-2.7,0.2-4.1,0.2c-2.3,0-5.7-0.2-9.2-1   c-0.5-0.1-1-0.2-1.5-0.4c-0.7-0.2-1.4-0.5-2.1-0.8c-1.3-0.6-2.4-1.5-3.3-2.4c-0.5-0.6-1-1.2-1.4-1.8c-0.1-0.1-0.1-0.2-0.2-0.3   c-0.5-1-0.9-2.5-0.3-4.1c0.8-2,1.9-2.9,3.7-2.9c1.3,0,3.1,0.6,5.2,1.7c1,0.5,2.1,0.9,3.3,1.2c0.8,0.2,1.6,0.3,2.5,0.5   c0.9,0.1,1.9,0.2,2.9,0.2c2.7,0,4.8-0.4,4.8-0.4C63.6,63.8,66.4,61.7,68.9,59.8z M44.3,37.4c2.7,0,5.1,2.9,5.2,2.9   c0.2,0.2,0.5,0.4,0.8,0.4c0.2,0,0.4-0.1,0.6-0.2c0.4-0.3,0.5-1,0.1-1.4c-0.1-0.1-2.4-2.8-5.4-3.5c0.7-1,1.5-1.9,2.2-2.5   c0.8-0.8,2.1-0.9,3.5-0.4c1.4,0.5,3.1,2,3.4,4.4c0.3,2.5-2.3,6.3-4.5,9c-0.8-0.7-2-1.5-3.8-2.5c-0.5-0.3-1.1-0.1-1.3,0.4   c-0.3,0.5-0.1,1.1,0.4,1.3c1.5,0.8,3,1.7,3.5,2.2c-0.3,0.3-0.6,0.6-0.8,0.9c-0.2,0.2-0.3,0.4-0.3,0.7h-7.7c0.6-1.6,1.6-4.8,1.7-7.8   c0,0,0.1-0.1,0.1-0.1C42,41.1,43,39.4,44.3,37.4z M18.2,46.5c-0.3-0.9,0.1-2,1-3.1c0.7-1,1.5-1.4,2-1.4c0.7,0.1,1.3,0.9,1.4,1.2   c0.2,0.4,0.7,0.7,1.2,0.5c0.5-0.1,0.8-0.6,0.7-1c-0.1-0.8,0-3.2,1.1-4.3c0.5-0.5,1.2-0.6,2.1-0.5c2.1,0.3,3,1.2,3.4,2   c0.1,0.9,0.3,1.6,0.3,1.6c0.1,0.5,0.6,0.8,1,0.7c0.5,0,0.9-0.4,0.9-0.9c0.1-0.5,0-1.2-0.3-2c-0.1-1.1,0-2.3,0.7-3.1   c0.6-0.7,1.5-1,2.8-0.8c1.3,0.1,2.2,0.6,2.7,1.5c1.8,2.9-0.1,9.5-1.2,12.1h-3.1l0.9-5.2c0.1-0.5-0.3-1.1-0.8-1.2   c-0.5-0.1-1.1,0.3-1.2,0.8l-0.9,5.5h-4.3l-2.3-3.7c-0.3-0.5-0.9-0.6-1.4-0.3c-0.5,0.3-0.6,0.9-0.3,1.4l1.6,2.6H21   C20.2,48.8,18.6,47.8,18.2,46.5z M20.8,51.1h35.5c-0.4,5-2,8.6-4.4,11.2c-1.6-0.3-3-0.7-4.1-1.3c-2.4-1.3-4.5-1.9-6.2-1.9   c-2.6,0-4.4,1.4-5.5,4.2c-0.7,1.6-0.6,3.4,0.2,5.3c-1.2,0-2.4,0-2.4,0h0c-12.3-1-18.9-6.9-19.6-17.4H20.8z"></path><path fill="currentColor" d="M93.3,73.2c-0.5-0.3-1.1-0.2-1.4,0.3L89.6,77H10.3l-1.8-3.6c-0.2-0.5-0.8-0.7-1.3-0.4   c-0.5,0.2-0.7,0.8-0.4,1.3l2.1,4.2C9,78.8,9.3,79,9.7,79h80.5c0.3,0,0.7-0.2,0.8-0.5l2.6-4C93.9,74.1,93.8,73.5,93.3,73.2z"></path></g></svg></g></svg>